<svg width="120" height="60" viewBox="0 0 120 60" fill="none" xmlns="http://www.w3.org/2000/svg">
  <rect width="120" height="60" rx="8" fill="#1e293b"/>
  <!-- cTrader Logo Design -->
  <g transform="translate(15, 10)">
    <!-- cTrader symbol -->
    <circle cx="30" cy="20" r="15" fill="none" stroke="#06b6d4" stroke-width="3"/>
    <path d="M20 20 A10 10 0 0 1 40 20" stroke="#06b6d4" stroke-width="3" fill="none"/>
    <!-- Trading chart elements -->
    <rect x="50" y="10" width="40" height="20" fill="#0f172a" stroke="#475569" stroke-width="1"/>
    <!-- Candlestick chart -->
    <line x1="55" y1="15" x2="55" y2="25" stroke="#10b981" stroke-width="1"/>
    <rect x="54" y="17" width="2" height="6" fill="#10b981"/>
    <line x1="60" y1="18" x2="60" y2="22" stroke="#ef4444" stroke-width="1"/>
    <rect x="59" y="18" width="2" height="4" fill="#ef4444"/>
    <line x1="65" y1="16" x2="65" y2="24" stroke="#10b981" stroke-width="1"/>
    <rect x="64" y="18" width="2" height="4" fill="#10b981"/>
    <line x1="70" y1="19" x2="70" y2="21" stroke="#ef4444" stroke-width="1"/>
    <rect x="69" y="19" width="2" height="2" fill="#ef4444"/>
    <line x1="75" y1="14" x2="75" y2="26" stroke="#10b981" stroke-width="1"/>
    <rect x="74" y="16" width="2" height="8" fill="#10b981"/>
    <line x1="80" y1="20" x2="80" y2="20" stroke="#ef4444" stroke-width="1"/>
    <rect x="79" y="20" width="2" height="0" fill="#ef4444"/>
    <line x1="85" y1="17" x2="85" y2="23" stroke="#10b981" stroke-width="1"/>
    <rect x="84" y="19" width="2" height="2" fill="#10b981"/>
    <!-- cTrader text -->
    <text x="45" y="40" text-anchor="middle" fill="#94a3b8" font-family="Arial, sans-serif" font-size="8" font-weight="bold">cTrader</text>
  </g>
</svg>